<?xml version="1.0" encoding="UTF-8" standalone="no"?>
<!-- Created with Inkscape (http://www.inkscape.org/) -->

<svg
   width="255.62054"
   height="60.195827"
   viewBox="0 0 255.62054 60.19583"
   version="1.1"
   id="svg5"
   inkscape:version="1.2.2 (b0a8486541, 2022-12-01)"
   sodipodi:docname="site_v1.svg"
   xml:space="preserve"
   inkscape:export-filename="site_tech.png"
   inkscape:export-xdpi="96"
   inkscape:export-ydpi="96"
   xmlns:inkscape="http://www.inkscape.org/namespaces/inkscape"
   xmlns:sodipodi="http://sodipodi.sourceforge.net/DTD/sodipodi-0.dtd"
   xmlns="http://www.w3.org/2000/svg"
   xmlns:svg="http://www.w3.org/2000/svg"><sodipodi:namedview
     id="namedview7"
     pagecolor="#ffffff"
     bordercolor="#000000"
     borderopacity="0.25"
     inkscape:showpageshadow="2"
     inkscape:pageopacity="0.0"
     inkscape:pagecheckerboard="0"
     inkscape:deskcolor="#d1d1d1"
     inkscape:document-units="px"
     showgrid="false"
     inkscape:lockguides="true"
     inkscape:zoom="0.35355339"
     inkscape:cx="2494.6727"
     inkscape:cy="4566.4956"
     inkscape:window-width="1920"
     inkscape:window-height="1021"
     inkscape:window-x="0"
     inkscape:window-y="27"
     inkscape:window-maximized="1"
     inkscape:current-layer="layer1"
     showguides="true" /><defs
     id="defs2" /><g
     inkscape:label="Camada 1"
     inkscape:groupmode="layer"
     id="layer1"
     transform="translate(809.04584,-132.83401)"><g
       id="g1825"
       transform="matrix(1.5024168,0,0,1.5024168,-1425.0561,-466.90284)"
       inkscape:export-xdpi="96"
       inkscape:export-ydpi="96"
       inkscape:export-filename="..\..\..\..\..\Downloads\logo-membros-hotmart.png"
       style="stroke-width:0.644713"><g
         id="g1819"
         transform="matrix(0.29562988,0,0,0.29562988,353.41579,401.08854)"
         style="fill:#ffffff;stroke-width:0.644713"><path
           style="fill:#ffffff;fill-opacity:1;stroke:none;stroke-width:0.17058"
           d="m 257.36124,-6.291595 c -13.88321,1.82373 -26.74196,10.32664 -39.15833,16.49093 -6.22592,3.09097 -13.91242,5.54987 -19.31458,9.97815 -4.94454,4.05289 -7.97948,10.62725 -7.36342,17.07488 1.28344,13.4321 13.02955,17.318301 23.50301,22.554941 7.02071,3.51023 14.14594,6.80826 21.16666,10.31875 6.76751,3.38376 13.46914,7.0567 21.16666,7.58375 7.69303,0.52705 16.09858,-2.38945 22.48933,-6.58177 3.72745,-2.44528 3.15118,-8.32115 -1.32266,-9.55305 -3.10303,-0.85434 -6.34021,1.54543 -8.99583,2.86385 -3.78725,1.8804 -7.9076,3.07922 -12.17084,2.66647 -5.63932,-0.54557 -10.89606,-3.7502 -15.875,-6.23966 -7.37473,-3.68724 -14.85053,-7.160691 -22.22499,-10.847931 -4.43322,-2.21667 -10.30827,-3.9235 -14.01902,-7.25804 -3.7255,-3.34804 -4.19641,-9.05643 -0.97526,-12.91458 1.86769,-2.23705 4.77819,-3.29274 7.32136,-4.56433 4.65882,-2.32939 9.36625,-4.55083 14.02292,-6.87914 5.89386,-2.94695 11.83348,-5.7845 17.72708,-8.73125 4.68339,-2.34169 9.24242,-4.93868 14.55209,-5.446 6.49764,-0.62087 12.6775,3.18575 18.25624,5.97517 7.55915,3.77957 15.1122,7.62614 22.75416,11.23577 4.45558,2.10476 9.85679,3.95949 13.75727,7.0014 4.09813,3.1959 4.90591,9.18951 1.71318,13.31331 -1.40494,1.81451 -3.7375,2.68843 -4.41378,5.02734 -1.10384,3.81953 2.15847,7.656779 6.14124,6.7392 2.66039,-0.61303 5.07789,-3.08689 6.70216,-5.1517 5.86529,-7.45596 5.36258,-18.89336 -0.92736,-25.92916 -4.33943,-4.85405 -11.38476,-7.2721 -17.15188,-9.9962 -9.68137,-4.573 -19.10952,-9.69486 -28.83957,-14.16256 -5.76712,-2.64809 -11.96789,-5.42934 -18.52084,-4.56854 m -41.27499,79.674941 c -4.48431,1.17633 -3.90893,7.12417 -4.38563,10.70028 -1.37499,10.31531 -3.43329,21.556394 4.91583,29.623014 4.86466,4.70006 12.07852,6.23199 18.25521,8.49101 7.65784,2.80088 15.56307,6.49658 23.8125,6.85482 9.21147,0.39979 19.02778,-4.28202 27.51667,-7.38399 5.366,-1.96083 11.5091,-3.07922 16.13931,-6.60215 3.88487,-2.95566 3.44725,-9.93298 -2.38099,-10.06607 -3.06308,-0.0699 -5.85576,2.80961 -8.73125,3.77772 -8.84316,2.97656 -17.68315,6.73285 -26.7229,9.04584 -9.01726,2.3069 -18.15676,-2.82125 -26.45833,-5.77585 -3.94151,-1.40282 -8.62303,-2.4011 -12.17083,-4.64847 -9.10279,-5.76553 -3.3962,-19.960694 -2.96571,-28.607544 0.18573,-3.73115 -3.27503,-6.33968 -6.82388,-5.40861 z"
           id="path1815" /><path
           style="fill:#ffffff;fill-opacity:1;stroke:none;stroke-width:0.17058"
           d="m 258.88748,27.590696 c -6.7601,1.05357 -9.55199,10.05945 -3.7039,14.26739 2.78368,2.00289 5.11757,0.53472 7.93723,1.36578 6.8707,2.02512 13.70463,6.64792 20.10834,9.8499 3.32502,1.66238 6.85165,3.0226 8.81565,6.41536 1.79334,3.09747 1.5031,6.61193 1.5031,10.05416 v 16.66875 c 0,3.83514 0.63023,8.7384 5.82083,8.15208 2.85644,-0.32279 4.54051,-2.80644 4.73869,-5.50624 0.53102,-7.23742 0.0238,-14.70158 0.0238,-21.96042 0,-6.15341 -1.36896,-11.98827 -5.60149,-16.66848 -3.1414,-3.47398 -7.4803,-5.22076 -11.59643,-7.21228 -5.4094,-2.61752 -10.70848,-5.46523 -16.13958,-8.03778 -4.445,-2.10502 -5.95339,-8.31612 -11.90625,-7.38822"
           id="path1817" /></g><text
         xml:space="preserve"
         style="font-style:normal;font-weight:normal;font-size:25.8357px;line-height:1.25;font-family:sans-serif;fill:#ffffff;fill-opacity:1;stroke:#ffffff;stroke-width:0.416414;stroke-opacity:1"
         x="457.14713"
         y="428.64444"
         id="text1823"><tspan
           sodipodi:role="line"
           id="tspan1821"
           x="457.14713"
           y="428.64444"
           style="font-style:normal;font-variant:normal;font-weight:normal;font-stretch:normal;font-family:Quicksand;-inkscape-font-specification:Quicksand;fill:#ffffff;fill-opacity:1;stroke:#ffffff;stroke-width:0.416414;stroke-opacity:1">techeduca</tspan></text></g></g></svg>
