<?xml version="1.0" encoding="UTF-8" standalone="no"?>
<svg
   width="180"
   height="42.14201"
   viewBox="0 0 180 42.14201"
   version="1.1"
   id="svg884"
   inkscape:version="1.2.2 (732a01da63, 2022-12-09)"
   sodipodi:docname="logo-branc.svg"
   xmlns:inkscape="http://www.inkscape.org/namespaces/inkscape"
   xmlns:sodipodi="http://sodipodi.sourceforge.net/DTD/sodipodi-0.dtd"
   xmlns="http://www.w3.org/2000/svg"
   xmlns:svg="http://www.w3.org/2000/svg"
   xmlns:rdf="http://www.w3.org/1999/02/22-rdf-syntax-ns#"
   xmlns:cc="http://creativecommons.org/ns#"
   xmlns:dc="http://purl.org/dc/elements/1.1/">
  <defs
     id="defs878" />
  <sodipodi:namedview
     id="base"
     pagecolor="#ffffff"
     bordercolor="#666666"
     borderopacity="1.0"
     inkscape:pageopacity="0.0"
     inkscape:pageshadow="2"
     inkscape:zoom="0.35"
     inkscape:cx="141.42857"
     inkscape:cy="134.28571"
     inkscape:document-units="px"
     inkscape:current-layer="layer1"
     inkscape:document-rotation="0"
     showgrid="false"
     units="px"
     inkscape:snap-page="true"
     inkscape:window-width="1920"
     inkscape:window-height="1009"
     inkscape:window-x="-8"
     inkscape:window-y="-8"
     inkscape:window-maximized="1"
     inkscape:showpageshadow="2"
     inkscape:pagecheckerboard="0"
     inkscape:deskcolor="#d1d1d1" />
  <metadata
     id="metadata881">
    <rdf:RDF>
      <cc:Work
         rdf:about="">
        <dc:format>image/svg+xml</dc:format>
        <dc:type
           rdf:resource="http://purl.org/dc/dcmitype/StillImage" />
      </cc:Work>
    </rdf:RDF>
  </metadata>
  <g
     inkscape:label="Layer 1"
     inkscape:groupmode="layer"
     id="layer1"
     transform="translate(-258.05099,-367.45435)">
    <g
       id="g352"
       transform="matrix(0.39634161,0,0,0.39634161,212.96108,183.59825)">
      <path
         style="fill:#ffffff;fill-opacity:1;stroke:none;stroke-width:0.207577"
         d="m 165.47887,464.00803 c -10.892,1.4308 -20.98027,8.10172 -30.72148,12.93788 -4.88452,2.42501 -10.91492,4.35412 -15.15316,7.82831 -3.87922,3.17968 -6.26026,8.33756 -5.77694,13.39602 1.00692,10.53809 10.22227,13.58699 18.43918,17.69537 5.50806,2.75393 11.09813,5.34139 16.6062,8.09553 5.30942,2.65471 10.56715,5.5363 16.6062,5.94979 6.03553,0.4135 12.63007,-1.87463 17.6439,-5.1637 2.92435,-1.91843 2.47224,-6.52831 -1.03769,-7.4948 -2.43446,-0.67026 -4.97418,1.21246 -7.05763,2.24682 -2.97127,1.47526 -6.20387,2.41579 -9.54858,2.09197 -4.4243,-0.42802 -8.54845,-2.9422 -12.45465,-4.8953 -5.78581,-2.8928 -11.65092,-5.61788 -17.43651,-8.51069 -3.47807,-1.73908 -8.08731,-3.07816 -10.99856,-5.69426 -2.92282,-2.62669 -3.29227,-7.10518 -0.76513,-10.13207 1.46528,-1.75507 3.7487,-2.58331 5.74393,-3.58093 3.65506,-1.82751 7.34825,-3.57033 11.00162,-5.39699 4.624,-2.31202 9.2839,-4.5382 13.9077,-6.85006 3.67433,-1.83716 7.25109,-3.87462 11.41677,-4.27264 5.09769,-0.4871 9.94607,2.49937 14.32285,4.68779 5.93049,2.96525 11.8562,5.98306 17.85166,8.81497 3.49561,1.65128 7.7331,3.1064 10.79321,5.49292 3.21516,2.50733 3.8489,7.20959 1.34406,10.44489 -1.10224,1.42357 -2.93224,2.1092 -3.46281,3.94418 -0.86601,2.99659 1.69342,6.00709 4.81808,5.28721 2.0872,-0.48095 3.98384,-2.42181 5.25815,-4.04174 4.60159,-5.84954 4.20719,-14.8227 -0.72755,-20.3426 -3.40448,-3.80823 -8.93186,-5.7053 -13.45643,-7.84248 -7.59547,-3.58772 -14.99228,-7.60605 -22.62595,-11.11116 -4.52457,-2.07755 -9.38935,-4.25957 -14.53044,-3.58423 m -32.38209,62.5086 c -3.51815,0.92288 -3.06674,5.58923 -3.44073,8.39485 -1.07874,8.09283 -2.69357,16.91197 3.85669,23.2406 3.81655,3.68741 9.47615,4.88927 14.32204,6.66158 6.00792,2.19742 12.20993,5.09686 18.68198,5.37791 7.22682,0.31366 14.92816,-3.35943 21.58808,-5.79307 4.20987,-1.53836 9.02941,-2.41579 12.66202,-5.17969 3.04785,-2.31884 2.70452,-7.79287 -1.868,-7.89728 -2.40312,-0.0548 -4.59411,2.20426 -6.85006,2.96379 -6.93786,2.33525 -13.87323,5.28223 -20.96532,7.09687 -7.07445,1.80987 -14.2448,-2.2134 -20.75776,-4.53142 -3.09229,-1.10057 -6.76516,-1.88377 -9.54857,-3.64693 -7.14155,-4.52332 -2.66447,-15.66007 -2.32673,-22.44391 0.14571,-2.92726 -2.56941,-4.97377 -5.35364,-4.2433 z"
         id="path879" />
      <path
         style="fill:#ffffff;fill-opacity:1;stroke:none;stroke-width:0.207577"
         d="m 166.67628,490.59022 c -5.30361,0.82657 -7.49397,7.89209 -2.90588,11.19341 2.18392,1.57136 4.01497,0.41952 6.22712,1.07152 5.39037,1.5888 10.7519,5.21559 15.7759,7.72769 2.60863,1.30421 5.37543,2.37137 6.91628,5.03314 1.40695,2.43011 1.17925,5.18736 1.17925,7.88795 v 13.07739 c 0,3.00884 0.49444,6.85567 4.5667,6.39567 2.24101,-0.25324 3.56224,-2.20178 3.71772,-4.31989 0.41661,-5.67809 0.0187,-11.53406 0.0187,-17.22895 0,-4.82763 -1.07401,-9.40534 -4.39462,-13.07717 -2.46457,-2.7255 -5.86864,-4.09593 -9.09793,-5.65836 -4.24392,-2.05357 -8.40128,-4.28772 -12.66223,-6.30601 -3.4873,-1.65148 -4.6707,-6.52437 -9.34099,-5.79639"
         id="path881" />
      <path
         d="m 242.00439,507.17357 h 15.97518 q 0.82276,0 1.37126,0.61707 0.54851,0.54851 0.54851,1.37126 0,0.75419 -0.54851,1.3027 -0.5485,0.5485 -1.37126,0.5485 h -15.97518 q -0.82275,0 -1.43982,-0.5485 -0.5485,-0.61707 -0.5485,-1.37126 0,-0.82276 0.5485,-1.37126 0.61707,-0.54851 1.43982,-0.54851 z m 7.06199,-9.66738 q 0.89132,0 1.43982,0.61707 0.61707,0.61707 0.61707,1.43982 v 34.41863 q 0,1.91976 0.47994,2.87965 0.54851,0.95988 1.37126,1.30269 0.82276,0.27425 1.64552,0.27425 0.5485,0 0.95988,-0.13712 0.47994,-0.20569 1.02844,-0.20569 0.61707,0 1.02845,0.47994 0.47994,0.47994 0.47994,1.23413 0,0.95989 -1.09701,1.64552 -1.09701,0.61706 -2.60539,0.61706 -0.61707,0 -1.8512,-0.0686 -1.23414,-0.13713 -2.53684,-0.75419 -1.30269,-0.68563 -2.19401,-2.33114 -0.82276,-1.64552 -0.82276,-4.73085 v -34.62432 q 0,-0.82275 0.54851,-1.43982 0.61706,-0.61707 1.50838,-0.61707 z"
         style="font-size:68.563px;line-height:1.25;font-family:Quicksand;-inkscape-font-specification:Quicksand;fill:#ffffff;stroke:#ffffff;stroke-width:1.71408"
         id="path313" />
      <path
         d="m 283.00517,542.75777 q -5.27935,0 -9.32456,-2.26258 -4.04522,-2.26257 -6.3078,-6.30779 -2.26258,-4.04522 -2.26258,-9.4617 0,-5.82785 2.26258,-9.94163 2.33114,-4.11378 5.96498,-6.3078 3.7024,-2.26258 7.81618,-2.26258 3.01677,0 5.82786,1.09701 2.87964,1.02845 5.07366,3.1539 2.26258,2.05689 3.56528,5.07366 1.37126,3.01677 1.50838,6.99343 -0.0686,0.82275 -0.68563,1.43982 -0.61706,0.5485 -1.43982,0.5485 h -27.49376 l -0.82276,-3.7024 H 293.701 l -0.89132,0.82276 v -1.37126 q -0.27425,-3.22246 -2.05689,-5.48504 -1.78263,-2.26258 -4.31947,-3.42815 -2.53683,-1.16557 -5.27935,-1.16557 -2.05689,0 -4.2509,0.82275 -2.12546,0.82276 -3.90809,2.6054 -1.71408,1.71407 -2.81109,4.45659 -1.09701,2.67396 -1.09701,6.37636 0,4.04522 1.64552,7.33624 1.64551,3.29103 4.73084,5.21079 3.1539,1.91977 7.47337,1.91977 2.39971,0 4.31947,-0.68563 1.91976,-0.68563 3.35959,-1.78264 1.43982,-1.16557 2.3997,-2.39971 0.7542,-0.61706 1.50839,-0.61706 0.68563,0 1.16557,0.5485 0.5485,0.5485 0.5485,1.23413 0,0.82276 -0.68563,1.43983 -2.05689,2.46826 -5.34791,4.31947 -3.29102,1.78263 -7.19912,1.78263 z"
         style="font-size:68.563px;line-height:1.25;font-family:Quicksand;-inkscape-font-specification:Quicksand;fill:#ffffff;stroke:#ffffff;stroke-width:1.71408"
         id="path315" />
      <path
         d="m 321.33193,506.21369 q 3.29102,0 6.03354,0.7542 2.74252,0.68563 4.38804,1.91976 1.71407,1.23413 1.71407,2.67396 0,0.68563 -0.47994,1.37126 -0.47994,0.61706 -1.3027,0.61706 -0.82275,0 -1.37126,-0.41137 -0.47994,-0.41138 -1.02844,-0.95989 -0.47994,-0.5485 -1.43982,-1.02844 -0.89132,-0.41138 -2.53684,-0.75419 -1.64551,-0.34282 -3.77096,-0.34282 -3.83953,0 -6.92486,1.91977 -3.08534,1.91976 -4.86798,5.21078 -1.78264,3.22246 -1.78264,7.26768 0,4.11378 1.71408,7.40481 1.71407,3.29102 4.73085,5.21078 3.01677,1.85121 7.06199,1.85121 2.74252,0 4.2509,-0.47995 1.50839,-0.47994 2.6054,-1.097 1.30269,-0.7542 1.8512,-1.43983 0.61706,-0.75419 1.57695,-0.75419 0.89132,0 1.30269,0.5485 0.47994,0.47995 0.47994,1.3027 0,1.09701 -1.64551,2.46827 -1.57695,1.3027 -4.38803,2.33114 -2.81108,0.95988 -6.44492,0.95988 -5.14223,0 -9.05032,-2.3997 -3.83953,-2.39971 -6.03354,-6.51349 -2.12546,-4.18234 -2.12546,-9.39313 0,-5.0051 2.19402,-9.11888 2.19402,-4.11378 6.10211,-6.58205 3.97665,-2.53683 9.18744,-2.53683 z"
         style="font-size:68.563px;line-height:1.25;font-family:Quicksand;-inkscape-font-specification:Quicksand;fill:#ffffff;stroke:#ffffff;stroke-width:1.71408"
         id="path317" />
      <path
         d="m 357.39604,506.7622 q 4.31947,0 6.99343,1.8512 2.67396,1.8512 3.90809,5.0051 1.3027,3.1539 1.3027,6.99342 v 19.40333 q 0,0.82276 -0.61707,1.43983 -0.61707,0.61706 -1.43982,0.61706 -0.95988,0 -1.50839,-0.61706 -0.5485,-0.61707 -0.5485,-1.43983 v -19.40333 q 0,-2.81108 -0.89132,-5.07366 -0.82276,-2.26258 -2.74252,-3.56527 -1.91976,-1.37127 -5.14223,-1.37127 -2.87964,0 -5.48504,1.37127 -2.53683,1.30269 -4.11378,3.56527 -1.57695,2.26258 -1.57695,5.07366 v 19.40333 q 0,0.82276 -0.61706,1.43983 -0.61707,0.61706 -1.43983,0.61706 -0.95988,0 -1.50838,-0.61706 -0.54851,-0.61707 -0.54851,-1.43983 v -46.62284 q 0,-0.82276 0.54851,-1.43982 0.61707,-0.61707 1.50838,-0.61707 0.89132,0 1.43983,0.61707 0.61706,0.61706 0.61706,1.43982 v 22.21441 l -1.57694,2.39971 q 0.13712,-2.12545 1.30269,-4.11378 1.23414,-2.05689 3.1539,-3.63384 1.91976,-1.64551 4.25091,-2.53683 2.33114,-0.95988 4.73084,-0.95988 z"
         style="font-size:68.563px;line-height:1.25;font-family:Quicksand;-inkscape-font-specification:Quicksand;fill:#ffffff;stroke:#ffffff;stroke-width:1.71408"
         id="path319" />
      <path
         d="m 396.20276,542.75777 q -5.27935,0 -9.32457,-2.26258 -4.04522,-2.26257 -6.3078,-6.30779 -2.26258,-4.04522 -2.26258,-9.4617 0,-5.82785 2.26258,-9.94163 2.33115,-4.11378 5.96498,-6.3078 3.70241,-2.26258 7.81619,-2.26258 3.01677,0 5.82785,1.09701 2.87965,1.02845 5.07366,3.1539 2.26258,2.05689 3.56528,5.07366 1.37126,3.01677 1.50839,6.99343 -0.0686,0.82275 -0.68563,1.43982 -0.61707,0.5485 -1.43983,0.5485 h -27.49376 l -0.82276,-3.7024 h 27.01383 l -0.89132,0.82276 v -1.37126 q -0.27425,-3.22246 -2.05689,-5.48504 -1.78264,-2.26258 -4.31947,-3.42815 -2.53683,-1.16557 -5.27935,-1.16557 -2.05689,0 -4.25091,0.82275 -2.12545,0.82276 -3.90809,2.6054 -1.71408,1.71407 -2.81108,4.45659 -1.09701,2.67396 -1.09701,6.37636 0,4.04522 1.64551,7.33624 1.64551,3.29103 4.73085,5.21079 3.1539,1.91977 7.47337,1.91977 2.3997,0 4.31946,-0.68563 1.91977,-0.68563 3.35959,-1.78264 1.43982,-1.16557 2.39971,-2.39971 0.75419,-0.61706 1.50838,-0.61706 0.68563,0 1.16557,0.5485 0.54851,0.5485 0.54851,1.23413 0,0.82276 -0.68563,1.43983 -2.05689,2.46826 -5.34792,4.31947 -3.29102,1.78263 -7.19911,1.78263 z"
         style="font-size:68.563px;line-height:1.25;font-family:Quicksand;-inkscape-font-specification:Quicksand;fill:#ffffff;stroke:#ffffff;stroke-width:1.71408"
         id="path321" />
      <path
         d="m 447.83073,491.33552 q 0.89132,0 1.43982,0.61707 0.61707,0.5485 0.61707,1.43982 v 46.62284 q 0,0.82276 -0.61707,1.43983 -0.61706,0.61706 -1.43982,0.61706 -0.89132,0 -1.50838,-0.61706 -0.54851,-0.61707 -0.54851,-1.43983 v -8.15899 l 1.16557,-0.95989 q 0,1.91977 -1.02844,4.04522 -1.02845,2.05689 -2.94821,3.83953 -1.8512,1.78264 -4.38803,2.87965 -2.46827,1.097 -5.34792,1.097 -4.59372,0 -8.29612,-2.3997 -3.63384,-2.39971 -5.75929,-6.51349 -2.12546,-4.11378 -2.12546,-9.39313 0,-5.21079 2.12546,-9.32457 2.12545,-4.18234 5.75929,-6.51348 3.63384,-2.39971 8.22756,-2.39971 2.81108,0 5.34791,1.02845 2.53683,1.02844 4.4566,2.81108 1.98833,1.78264 3.08533,4.11378 1.16557,2.26258 1.16557,4.73085 l -1.43982,-1.02845 v -24.47699 q 0,-0.82276 0.54851,-1.43982 0.61706,-0.61707 1.50838,-0.61707 z m -14.2611,47.58273 q 3.7024,0 6.44492,-1.85121 2.81108,-1.91976 4.38803,-5.14222 1.64551,-3.29103 1.64551,-7.47337 0,-4.11378 -1.64551,-7.33624 -1.57695,-3.29102 -4.38803,-5.14222 -2.81108,-1.91977 -6.44492,-1.91977 -3.56528,0 -6.44493,1.91977 -2.81108,1.8512 -4.45659,5.14222 -1.57695,3.22246 -1.57695,7.33624 0,4.11378 1.57695,7.40481 1.64551,3.29102 4.45659,5.21078 2.87965,1.85121 6.44493,1.85121 z"
         style="font-size:68.563px;line-height:1.25;font-family:Quicksand;-inkscape-font-specification:Quicksand;fill:#ffffff;stroke:#ffffff;stroke-width:1.71408"
         id="path323" />
      <path
         d="m 487.9402,507.24214 q 0.89132,0 1.43982,0.61706 0.61707,0.61707 0.61707,1.43983 v 19.33476 q 0,6.78774 -3.83953,10.35302 -3.83952,3.56527 -10.35301,3.56527 -6.44492,0 -10.28445,-3.56527 -3.77097,-3.56528 -3.77097,-10.35302 v -19.33476 q 0,-0.82276 0.54851,-1.43983 0.61707,-0.61706 1.50838,-0.61706 0.89132,0 1.43983,0.61706 0.61706,0.61707 0.61706,1.43983 v 19.33476 q 0,4.93654 2.6054,7.54194 2.67396,2.53683 7.33624,2.53683 4.73085,0 7.4048,-2.53683 2.67396,-2.6054 2.67396,-7.54194 v -19.33476 q 0,-0.82276 0.54851,-1.43983 0.5485,-0.61706 1.50838,-0.61706 z"
         style="font-size:68.563px;line-height:1.25;font-family:Quicksand;-inkscape-font-specification:Quicksand;fill:#ffffff;stroke:#ffffff;stroke-width:1.71408"
         id="path325" />
      <path
         d="m 516.18818,506.21369 q 3.29103,0 6.03355,0.7542 2.74252,0.68563 4.38803,1.91976 1.71408,1.23413 1.71408,2.67396 0,0.68563 -0.47994,1.37126 -0.47995,0.61706 -1.3027,0.61706 -0.82276,0 -1.37126,-0.41137 -0.47994,-0.41138 -1.02845,-0.95989 -0.47994,-0.5485 -1.43982,-1.02844 -0.89132,-0.41138 -2.53683,-0.75419 -1.64551,-0.34282 -3.77097,-0.34282 -3.83952,0 -6.92486,1.91977 -3.08533,1.91976 -4.86797,5.21078 -1.78264,3.22246 -1.78264,7.26768 0,4.11378 1.71407,7.40481 1.71408,3.29102 4.73085,5.21078 3.01677,1.85121 7.06199,1.85121 2.74252,0 4.25091,-0.47995 1.50838,-0.47994 2.60539,-1.097 1.3027,-0.7542 1.8512,-1.43983 0.61707,-0.75419 1.57695,-0.75419 0.89132,0 1.3027,0.5485 0.47994,0.47995 0.47994,1.3027 0,1.09701 -1.64551,2.46827 -1.57695,1.3027 -4.38803,2.33114 -2.81109,0.95988 -6.44493,0.95988 -5.14222,0 -9.05031,-2.3997 -3.83953,-2.39971 -6.03355,-6.51349 -2.12545,-4.18234 -2.12545,-9.39313 0,-5.0051 2.19402,-9.11888 2.19401,-4.11378 6.1021,-6.58205 3.97666,-2.53683 9.18744,-2.53683 z"
         style="font-size:68.563px;line-height:1.25;font-family:Quicksand;-inkscape-font-specification:Quicksand;fill:#ffffff;stroke:#ffffff;stroke-width:1.71408"
         id="path327" />
      <path
         d="m 565.00503,507.03645 q 0.89132,0 1.43983,0.61707 0.61706,0.61706 0.61706,1.50838 v 30.85335 q 0,0.82276 -0.61706,1.43983 -0.61707,0.61706 -1.43983,0.61706 -0.89132,0 -1.50838,-0.61706 -0.54851,-0.61707 -0.54851,-1.43983 v -8.15899 l 1.16557,-0.54851 q 0,1.91977 -1.097,3.90809 -1.02845,1.98833 -2.87965,3.70241 -1.8512,1.71407 -4.38803,2.81108 -2.46827,1.02844 -5.34792,1.02844 -4.66228,0 -8.36468,-2.3997 -3.63384,-2.39971 -5.7593,-6.58205 -2.05689,-4.18234 -2.05689,-9.39313 0,-5.34792 2.12546,-9.39313 2.12545,-4.11378 5.75929,-6.44493 3.63384,-2.33114 8.22756,-2.33114 2.94821,0 5.48504,1.02845 2.60539,1.02844 4.52516,2.81108 1.91976,1.78264 2.94821,4.11378 1.09701,2.26258 1.09701,4.73085 l -1.43983,-1.02845 v -8.7075 q 0,-0.89132 0.54851,-1.50838 0.61706,-0.61707 1.50838,-0.61707 z m -14.2611,31.8818 q 3.63384,0 6.44492,-1.85121 2.81108,-1.91976 4.38803,-5.21078 1.64551,-3.35959 1.64551,-7.47337 0,-4.04522 -1.64551,-7.26768 -1.57695,-3.22246 -4.38803,-5.14222 -2.81108,-1.91977 -6.44492,-1.91977 -3.56528,0 -6.44492,1.8512 -2.81109,1.8512 -4.4566,5.07366 -1.57695,3.22247 -1.57695,7.40481 0,4.11378 1.57695,7.47337 1.64551,3.29102 4.4566,5.21078 2.81108,1.85121 6.44492,1.85121 z"
         style="font-size:68.563px;line-height:1.25;font-family:Quicksand;-inkscape-font-specification:Quicksand;fill:#ffffff;stroke:#ffffff;stroke-width:1.71408"
         id="path329" />
    </g>
  </g>
</svg>
