<?xml version="1.0" encoding="UTF-8" standalone="no"?>
<!-- Generator: Adobe Illustrator 26.0.1, SVG Export Plug-In . SVG Version: 6.00 Build 0)  -->

<svg
   version="1.1"
   id="Capa_1"
   x="0px"
   y="0px"
   viewBox="0 0 24 24"
   style="enable-background:new 0 0 24 24;"
   xml:space="preserve"
   width="512"
   height="512"
   sodipodi:docname="youtube-azul.svg"
   inkscape:version="1.2.2 (b0a8486541, 2022-12-01)"
   xmlns:inkscape="http://www.inkscape.org/namespaces/inkscape"
   xmlns:sodipodi="http://sodipodi.sourceforge.net/DTD/sodipodi-0.dtd"
   xmlns="http://www.w3.org/2000/svg"
   xmlns:svg="http://www.w3.org/2000/svg"><defs
   id="defs7191" /><sodipodi:namedview
   id="namedview7189"
   pagecolor="#ffffff"
   bordercolor="#000000"
   borderopacity="0.25"
   inkscape:showpageshadow="2"
   inkscape:pageopacity="0.0"
   inkscape:pagecheckerboard="0"
   inkscape:deskcolor="#d1d1d1"
   showgrid="false"
   inkscape:zoom="1.6582031"
   inkscape:cx="223.73616"
   inkscape:cy="256.60307"
   inkscape:window-width="1920"
   inkscape:window-height="1021"
   inkscape:window-x="0"
   inkscape:window-y="27"
   inkscape:window-maximized="1"
   inkscape:current-layer="Capa_1" />
<g
   id="XMLID_184_"
   style="fill:#1428bf;fill-opacity:1">
	<path
   d="M23.498,6.186c-0.276-1.039-1.089-1.858-2.122-2.136C19.505,3.546,12,3.546,12,3.546s-7.505,0-9.377,0.504   C1.591,4.328,0.778,5.146,0.502,6.186C0,8.07,0,12,0,12s0,3.93,0.502,5.814c0.276,1.039,1.089,1.858,2.122,2.136   C4.495,20.454,12,20.454,12,20.454s7.505,0,9.377-0.504c1.032-0.278,1.845-1.096,2.122-2.136C24,15.93,24,12,24,12   S24,8.07,23.498,6.186z M9.546,15.569V8.431L15.818,12L9.546,15.569z"
   id="path7185"
   style="fill:#1428bf;fill-opacity:1" />
</g>















</svg>
